<?xml version="1.0" encoding="UTF-8"?>
<svg width="512" height="512" viewBox="0 0 512 512" fill="none" xmlns="http://www.w3.org/2000/svg">
    <rect width="512" height="512" rx="128" fill="#1a73e8"/>
    <path d="M256 128C179.8 128 118 189.8 118 266C118 342.2 179.8 404 256 404C332.2 404 394 342.2 394 266C394 189.8 332.2 128 256 128ZM256 368C199.8 368 154 322.2 154 266C154 209.8 199.8 164 256 164C312.2 164 358 209.8 358 266C358 322.2 312.2 368 256 368ZM270 194V272L338 311L326 332L244 284V194H270Z" fill="white"/>
</svg>
